<svg fill="#0C2643" xmlns="http://www.w3.org/2000/svg" viewBox="0 0 245.17 247.17"><g id="Layer_2" data-name="Layer 2"><g id="Layer_1-2" data-name="Layer 1"><polygon points="0 20.39 55.65 20.39 55.65 0 64.5 0 64.5 187.83 0 187.83 0 117.9 43.71 117.9 43.71 86.14 0 86.14 0 20.39"/><polygon points="180.57 187.83 231.71 187.83 180.57 50.48 180.57 187.83"/><polygon points="201.56 2 245.07 2 245.07 120.13 201.56 2"/><polyline points="98.08 114.17 98.08 177.17 150.08 177.17 150.08 21.67 98.08 21.67 98.08 81.17 144.83 81.17 144.83 113.67 98.08 113.17"/><path d="M14.72,234a5.83,5.83,0,0,1-.05.79,2.08,2.08,0,0,1-.16.53.63.63,0,0,1-.25.3.68.68,0,0,1-.35.09h-12a2,2,0,0,1-1.13-.3,1.1,1.1,0,0,1-.45-1V216a.37.37,0,0,1,.13-.28,1,1,0,0,1,.44-.21,5.47,5.47,0,0,1,.81-.12c.35,0,.78-.05,1.29-.05s1,0,1.29.05a5.47,5.47,0,0,1,.81.12,1.06,1.06,0,0,1,.44.21.41.41,0,0,1,.13.28v16.26h8.23a.68.68,0,0,1,.35.09.63.63,0,0,1,.25.28,1.78,1.78,0,0,1,.16.52A5.61,5.61,0,0,1,14.72,234Z"/><path d="M39.28,234.13a4.33,4.33,0,0,1,.31.89.47.47,0,0,1-.17.5,1.58,1.58,0,0,1-.78.2c-.38,0-.9,0-1.56,0l-1.61,0a5.11,5.11,0,0,1-.88-.1.91.91,0,0,1-.42-.19,1.08,1.08,0,0,1-.2-.33l-1.76-4.06H22.38L20.72,235a1,1,0,0,1-.21.37.91.91,0,0,1-.43.23,3.59,3.59,0,0,1-.82.12q-.54,0-1.41,0c-.62,0-1.11,0-1.46,0a1.24,1.24,0,0,1-.72-.22.5.5,0,0,1-.15-.51,5.28,5.28,0,0,1,.31-.88l8.07-17.94a1.34,1.34,0,0,1,.28-.42,1,1,0,0,1,.51-.25,4.69,4.69,0,0,1,1-.11c.41,0,1,0,1.65,0s1.43,0,1.9,0a5.79,5.79,0,0,1,1.11.11,1.08,1.08,0,0,1,.56.25,1.52,1.52,0,0,1,.3.47Zm-12-14.82h0l-3.7,8.59H31Z"/><path d="M64.52,234.23a1.35,1.35,0,0,1-.16.64,1.52,1.52,0,0,1-.44.47,2.06,2.06,0,0,1-.64.27,3.29,3.29,0,0,1-.76.09H60.25a6.13,6.13,0,0,1-1.22-.11,3,3,0,0,1-1-.4,3.78,3.78,0,0,1-.84-.78,13.85,13.85,0,0,1-.91-1.28l-6.51-9.45c-.38-.56-.76-1.17-1.15-1.82s-.75-1.28-1.06-1.9h0c.06.75.1,1.5.13,2.24s0,1.52,0,2.31v10.58a.41.41,0,0,1-.12.28.88.88,0,0,1-.38.21,3.57,3.57,0,0,1-.74.13c-.31,0-.71,0-1.19,0s-.86,0-1.17,0a3.34,3.34,0,0,1-.73-.13.84.84,0,0,1-.37-.21.5.5,0,0,1-.1-.28V216.91a1.25,1.25,0,0,1,.56-1.1,2.44,2.44,0,0,1,1.36-.36h2.86a6.75,6.75,0,0,1,1.29.1,3.37,3.37,0,0,1,.94.33,3.14,3.14,0,0,1,.78.65,8.93,8.93,0,0,1,.75,1L56.57,225l.88,1.32q.44.64.84,1.29l.79,1.28c.26.41.5.83.75,1.25h0q-.06-1.09-.09-2.28c0-.8,0-1.55,0-2.27v-9.48a.42.42,0,0,1,.12-.29,1,1,0,0,1,.4-.21,3.14,3.14,0,0,1,.75-.14c.31,0,.71,0,1.19,0s.85,0,1.16,0a2.52,2.52,0,0,1,.71.14.85.85,0,0,1,.36.21.51.51,0,0,1,.1.29Z"/><path d="M92,225.26A11.13,11.13,0,0,1,91,230a8.29,8.29,0,0,1-2.7,3.22A11.93,11.93,0,0,1,84,235.08a26.83,26.83,0,0,1-6,.58H71.8a2,2,0,0,1-1.12-.3,1.09,1.09,0,0,1-.46-1V216.74a1.09,1.09,0,0,1,.46-1,2,2,0,0,1,1.12-.3h6.71a24.13,24.13,0,0,1,5.94.63,11.84,11.84,0,0,1,4.1,1.87A8.26,8.26,0,0,1,91.09,221,9.79,9.79,0,0,1,92,225.26Zm-5.5.14a8,8,0,0,0-.44-2.67,5.33,5.33,0,0,0-1.39-2.14,6.61,6.61,0,0,0-2.47-1.42,12.58,12.58,0,0,0-4-.51H75.52v13.75h2.77A13.42,13.42,0,0,0,82,232a6.42,6.42,0,0,0,2.5-1.32,5.48,5.48,0,0,0,1.49-2.2A8.61,8.61,0,0,0,86.46,225.4Z"/><path d="M111.83,229.6a5.11,5.11,0,0,1-.76,2.8,6.49,6.49,0,0,1-2.09,2,10.36,10.36,0,0,1-3.07,1.21,16.74,16.74,0,0,1-3.76.4,16.55,16.55,0,0,1-2.52-.17,17.23,17.23,0,0,1-2-.41,9.82,9.82,0,0,1-1.49-.51,4.44,4.44,0,0,1-.86-.47,1.09,1.09,0,0,1-.37-.58,4,4,0,0,1-.11-1.11,6.24,6.24,0,0,1,0-.81,1.71,1.71,0,0,1,.13-.53.64.64,0,0,1,.24-.29.68.68,0,0,1,.36-.08,2,2,0,0,1,.79.25,12.26,12.26,0,0,0,1.33.57,13.75,13.75,0,0,0,1.93.57,11.21,11.21,0,0,0,2.6.26,7.63,7.63,0,0,0,1.74-.18,4.41,4.41,0,0,0,1.3-.51,2.27,2.27,0,0,0,.82-.81,2.07,2.07,0,0,0,.28-1.08,1.65,1.65,0,0,0-.48-1.18,4.8,4.8,0,0,0-1.27-.87,13.38,13.38,0,0,0-1.76-.72c-.67-.22-1.35-.46-2-.71a20.37,20.37,0,0,1-2-.85,8.39,8.39,0,0,1-1.77-1.14,5.45,5.45,0,0,1-1.26-1.57,4.5,4.5,0,0,1-.49-2.18,4.63,4.63,0,0,1,.7-2.55,5.88,5.88,0,0,1,1.88-1.83,9.23,9.23,0,0,1,2.79-1.08,15.57,15.57,0,0,1,3.41-.36,14.51,14.51,0,0,1,1.86.11,16.6,16.6,0,0,1,1.74.29,13.94,13.94,0,0,1,1.43.42,3.33,3.33,0,0,1,.83.4,1,1,0,0,1,.27.26,1.13,1.13,0,0,1,.13.29,3.59,3.59,0,0,1,.07.45c0,.19,0,.41,0,.68s0,.56,0,.77a2.55,2.55,0,0,1-.1.51.52.52,0,0,1-.56.39,2.11,2.11,0,0,1-.71-.21c-.32-.15-.72-.31-1.19-.48a13.79,13.79,0,0,0-1.64-.47,9.27,9.27,0,0,0-2-.21,6.22,6.22,0,0,0-1.52.16,3.35,3.35,0,0,0-1.08.46,1.8,1.8,0,0,0-.86,1.55,1.62,1.62,0,0,0,.48,1.17,4.35,4.35,0,0,0,1.27.87,14.21,14.21,0,0,0,1.81.72c.67.22,1.36.46,2.06.71s1.39.53,2.07.85a8.29,8.29,0,0,1,1.79,1.14,5.52,5.52,0,0,1,1.28,1.57A4.38,4.38,0,0,1,111.83,229.6Z"/><path d="M134,232.6a6.45,6.45,0,0,1,0,.67,1.94,1.94,0,0,1-.1.47,1,1,0,0,1-.16.33,1.59,1.59,0,0,1-.32.32,4.64,4.64,0,0,1-.86.46,10.72,10.72,0,0,1-1.56.54,16.11,16.11,0,0,1-2.1.43,18.92,18.92,0,0,1-7.41-.47,10,10,0,0,1-3.68-1.91,8.37,8.37,0,0,1-2.33-3.18,12.53,12.53,0,0,1,.08-9,9.52,9.52,0,0,1,2.49-3.36,11,11,0,0,1,3.83-2.06,16.31,16.31,0,0,1,4.93-.7,14.34,14.34,0,0,1,2.1.14,15.47,15.47,0,0,1,1.87.37,10.81,10.81,0,0,1,1.55.52,4.86,4.86,0,0,1,1,.51,1.82,1.82,0,0,1,.37.35,1,1,0,0,1,.16.36,3.14,3.14,0,0,1,.09.51,7.32,7.32,0,0,1,0,.74,5.72,5.72,0,0,1,0,.79,1.52,1.52,0,0,1-.14.54.71.71,0,0,1-.24.29.51.51,0,0,1-.32.1,1.55,1.55,0,0,1-.77-.28c-.31-.18-.71-.38-1.2-.61a13.21,13.21,0,0,0-1.76-.61,9.67,9.67,0,0,0-2.44-.27,7.53,7.53,0,0,0-2.78.49,5.73,5.73,0,0,0-2.08,1.41,6,6,0,0,0-1.31,2.21,10.15,10.15,0,0,0,0,6,5.62,5.62,0,0,0,1.36,2.15,5.43,5.43,0,0,0,2.12,1.25,8.72,8.72,0,0,0,2.8.42,10.34,10.34,0,0,0,2.45-.26,11.93,11.93,0,0,0,1.77-.57c.49-.21.89-.4,1.21-.56a1.72,1.72,0,0,1,.74-.25.73.73,0,0,1,.32.06.47.47,0,0,1,.2.25,1.87,1.87,0,0,1,.13.52C134,231.93,134,232.23,134,232.6Z"/><path d="M159.25,234.13a4.84,4.84,0,0,1,.3.89.47.47,0,0,1-.16.5,1.62,1.62,0,0,1-.79.2c-.37,0-.89,0-1.55,0l-1.61,0a5,5,0,0,1-.88-.1,1,1,0,0,1-.43-.19,1.32,1.32,0,0,1-.2-.33l-1.76-4.06h-9.82L140.69,235a1.44,1.44,0,0,1-.21.37.91.91,0,0,1-.43.23,3.6,3.6,0,0,1-.83.12c-.35,0-.82,0-1.4,0s-1.11,0-1.46,0a1.31,1.31,0,0,1-.73-.22.52.52,0,0,1-.14-.51,4.34,4.34,0,0,1,.3-.88l8.07-17.94a1.35,1.35,0,0,1,.29-.42,1,1,0,0,1,.51-.25,4.58,4.58,0,0,1,1-.11c.42,0,1,0,1.66,0s1.43,0,1.9,0a5.67,5.67,0,0,1,1.1.11,1.12,1.12,0,0,1,.57.25,1.51,1.51,0,0,1,.29.47Zm-12-14.82h0l-3.7,8.59h7.42Z"/><path d="M180.83,221.59a6.36,6.36,0,0,1-.69,3,6.11,6.11,0,0,1-2,2.21,9.75,9.75,0,0,1-3.23,1.37,19.13,19.13,0,0,1-4.5.47h-2.18v6.45a.39.39,0,0,1-.13.28,1.06,1.06,0,0,1-.44.21,5.47,5.47,0,0,1-.81.12c-.33,0-.76,0-1.29,0s-.94,0-1.28,0a5.43,5.43,0,0,1-.82-.12.9.9,0,0,1-.43-.21.38.38,0,0,1-.12-.28V216.91a1.3,1.3,0,0,1,.5-1.1,2.15,2.15,0,0,1,1.3-.36h6.17c.62,0,1.21,0,1.77.05s1.23.12,2,.24a10.8,10.8,0,0,1,2.37.66,7,7,0,0,1,2.06,1.23,5.06,5.06,0,0,1,1.29,1.73A5.32,5.32,0,0,1,180.83,221.59Zm-5.56.29a2.89,2.89,0,0,0-1.68-2.76,4.8,4.8,0,0,0-1.49-.42c-.52,0-1-.08-1.61-.08h-2.26v6.86h2.38a7.29,7.29,0,0,0,2.14-.27,3.8,3.8,0,0,0,1.4-.74,3.11,3.11,0,0,0,.83-1.14A3.61,3.61,0,0,0,175.27,221.88Z"/><path d="M200.46,234.06a5.11,5.11,0,0,1-.05.75,1.75,1.75,0,0,1-.15.5.68.68,0,0,1-.26.27.62.62,0,0,1-.33.08H186.53a2,2,0,0,1-1.12-.3,1.09,1.09,0,0,1-.46-1V216.74a1.09,1.09,0,0,1,.46-1,2,2,0,0,1,1.12-.3h13.06a.66.66,0,0,1,.32.07.69.69,0,0,1,.25.28,2.14,2.14,0,0,1,.15.5,5.3,5.3,0,0,1,.05.77,5.06,5.06,0,0,1-.05.74,2.14,2.14,0,0,1-.15.5.73.73,0,0,1-.25.27.57.57,0,0,1-.32.08h-9.34v4.94h7.9a.64.64,0,0,1,.34.09.7.7,0,0,1,.25.26,1.42,1.42,0,0,1,.15.49,4,4,0,0,1,.05.74,4,4,0,0,1-.05.75,1.36,1.36,0,0,1-.15.48.6.6,0,0,1-.25.25.63.63,0,0,1-.34.08h-7.9v5.71h9.42a.73.73,0,0,1,.33.08.65.65,0,0,1,.26.28,1.58,1.58,0,0,1,.15.49A5.15,5.15,0,0,1,200.46,234.06Z"/><path d="M221.89,234.64a3,3,0,0,1,0,.47,1.22,1.22,0,0,1-.09.32.45.45,0,0,1-.15.18.36.36,0,0,1-.21,0h-7.12a1.2,1.2,0,0,1-.67-.18.64.64,0,0,1-.27-.58V224a.23.23,0,0,1,.08-.16.57.57,0,0,1,.26-.12,3.32,3.32,0,0,1,.49-.08c.2,0,.46,0,.76,0s.57,0,.77,0a3.39,3.39,0,0,1,.48.08.63.63,0,0,1,.26.12.21.21,0,0,1,.07.16v9.66h4.89a.46.46,0,0,1,.21,0,.42.42,0,0,1,.15.17,1,1,0,0,1,.09.31A3,3,0,0,1,221.89,234.64Z"/><path d="M232.29,234.64a3,3,0,0,1,0,.47,1.22,1.22,0,0,1-.09.32.45.45,0,0,1-.15.18.36.36,0,0,1-.21,0h-7.12a1.17,1.17,0,0,1-.67-.18.64.64,0,0,1-.27-.58V224a.23.23,0,0,1,.08-.16.57.57,0,0,1,.26-.12,3.39,3.39,0,0,1,.48-.08c.21,0,.46,0,.77,0s.56,0,.77,0a3.39,3.39,0,0,1,.48.08.53.53,0,0,1,.25.12.19.19,0,0,1,.08.16v9.66h4.89a.46.46,0,0,1,.21,0,.42.42,0,0,1,.15.17,1,1,0,0,1,.09.31A3,3,0,0,1,232.29,234.64Z"/><path d="M244.59,233.85c0,.15,0,.28,0,.39a1.7,1.7,0,0,1-.06.28.61.61,0,0,1-.09.2,1.25,1.25,0,0,1-.2.19,2.16,2.16,0,0,1-.51.27,6.91,6.91,0,0,1-.92.32,10.47,10.47,0,0,1-1.25.26,11.27,11.27,0,0,1-4.4-.28,5.81,5.81,0,0,1-2.18-1.14,5,5,0,0,1-1.39-1.89,7.34,7.34,0,0,1,0-5.35,5.55,5.55,0,0,1,1.48-2,6.45,6.45,0,0,1,2.27-1.23,9.7,9.7,0,0,1,2.93-.41,8.47,8.47,0,0,1,1.25.08,8.39,8.39,0,0,1,1.11.22,6.6,6.6,0,0,1,.92.31,3.42,3.42,0,0,1,.57.3,1.13,1.13,0,0,1,.22.21.51.51,0,0,1,.09.21,1.31,1.31,0,0,1,.06.31c0,.11,0,.26,0,.43a3.23,3.23,0,0,1,0,.48.82.82,0,0,1-.08.31.45.45,0,0,1-.15.18.3.3,0,0,1-.19.05.91.91,0,0,1-.45-.16,8,8,0,0,0-.72-.36,7.33,7.33,0,0,0-1-.36,5.64,5.64,0,0,0-1.45-.16,4.26,4.26,0,0,0-1.65.29,3.34,3.34,0,0,0-1.24.83,3.46,3.46,0,0,0-.77,1.32,5.8,5.8,0,0,0,0,3.56,3.21,3.21,0,0,0,.8,1.28,3.31,3.31,0,0,0,1.26.74,5.08,5.08,0,0,0,1.66.25,6.24,6.24,0,0,0,1.46-.15,7.22,7.22,0,0,0,1.05-.34c.29-.12.53-.24.72-.33a1,1,0,0,1,.44-.15.5.5,0,0,1,.19,0,.31.31,0,0,1,.12.15,1.61,1.61,0,0,1,.07.31A4.11,4.11,0,0,1,244.59,233.85Z"/><rect y="242.17" width="245.17" height="5"/><rect x="210.17" y="215.07" width="35" height="3.36"/></g></g></svg>